<mxfile host="www.draw.io" modified="2019-10-21T02:24:19.610Z" agent="Mozilla/5.0 (Macintosh; Intel Mac OS X 10_15) AppleWebKit/605.1.15 (KHTML, like Gecko) Version/13.0.2 Safari/605.1.15" etag="XdeT1qqQii0Sjw8eORiP" version="12.1.3" type="github" pages="1">
  <diagram name="Page-1" id="7e0a89b8-554c-2b80-1dc8-d5c74ca68de4">
    <mxGraphModel dx="522" dy="368" grid="1" gridSize="10" guides="1" tooltips="1" connect="1" arrows="1" fold="1" page="1" pageScale="1" pageWidth="1100" pageHeight="850" background="#ffffff" math="0" shadow="0">
      <root>
        <mxCell id="0"/>
        <mxCell id="1" parent="0"/>
        <mxCell id="A92BPheFpYFU73hw37jA-66" style="edgeStyle=orthogonalEdgeStyle;rounded=0;orthogonalLoop=1;jettySize=auto;html=1;exitX=0;exitY=0.5;exitDx=0;exitDy=0;exitPerimeter=0;startArrow=none;startFill=0;endArrow=none;endFill=0;" edge="1" parent="1" source="A92BPheFpYFU73hw37jA-6">
          <mxGeometry relative="1" as="geometry">
            <mxPoint x="130" y="90" as="targetPoint"/>
          </mxGeometry>
        </mxCell>
        <mxCell id="A92BPheFpYFU73hw37jA-100" style="edgeStyle=orthogonalEdgeStyle;rounded=0;orthogonalLoop=1;jettySize=auto;html=1;exitX=1;exitY=0.5;exitDx=0;exitDy=0;exitPerimeter=0;startArrow=none;startFill=0;endArrow=none;endFill=0;" edge="1" parent="1" source="A92BPheFpYFU73hw37jA-169">
          <mxGeometry relative="1" as="geometry">
            <mxPoint x="400" y="90" as="targetPoint"/>
          </mxGeometry>
        </mxCell>
        <mxCell id="A92BPheFpYFU73hw37jA-193" style="edgeStyle=orthogonalEdgeStyle;rounded=0;orthogonalLoop=1;jettySize=auto;html=1;exitX=1;exitY=0.5;exitDx=0;exitDy=0;exitPerimeter=0;startArrow=none;startFill=0;endArrow=none;endFill=0;entryX=0;entryY=0.5;entryDx=0;entryDy=0;" edge="1" parent="1" source="A92BPheFpYFU73hw37jA-6" target="A92BPheFpYFU73hw37jA-169">
          <mxGeometry relative="1" as="geometry">
            <mxPoint x="330" y="90" as="targetPoint"/>
          </mxGeometry>
        </mxCell>
        <mxCell id="A92BPheFpYFU73hw37jA-6" value="" style="shape=or;whiteSpace=wrap;html=1;" vertex="1" parent="1">
          <mxGeometry x="300" y="80" width="20" height="20" as="geometry"/>
        </mxCell>
        <mxCell id="A92BPheFpYFU73hw37jA-89" style="edgeStyle=orthogonalEdgeStyle;rounded=0;orthogonalLoop=1;jettySize=auto;html=1;exitX=1;exitY=0.5;exitDx=0;exitDy=0;exitPerimeter=0;entryX=0.5;entryY=0;entryDx=0;entryDy=0;entryPerimeter=0;startArrow=none;startFill=0;endArrow=none;endFill=0;" edge="1" parent="1" source="A92BPheFpYFU73hw37jA-7" target="A92BPheFpYFU73hw37jA-83">
          <mxGeometry relative="1" as="geometry"/>
        </mxCell>
        <mxCell id="A92BPheFpYFU73hw37jA-101" style="edgeStyle=orthogonalEdgeStyle;rounded=0;orthogonalLoop=1;jettySize=auto;html=1;exitX=0.25;exitY=0.5;exitDx=0;exitDy=0;exitPerimeter=0;startArrow=none;startFill=0;endArrow=none;endFill=0;" edge="1" parent="1" source="A92BPheFpYFU73hw37jA-104">
          <mxGeometry relative="1" as="geometry">
            <mxPoint x="340" y="90" as="targetPoint"/>
          </mxGeometry>
        </mxCell>
        <mxCell id="A92BPheFpYFU73hw37jA-7" value="" style="shape=xor;whiteSpace=wrap;html=1;rotation=90;" vertex="1" parent="1">
          <mxGeometry x="330" y="350" width="20" height="20" as="geometry"/>
        </mxCell>
        <mxCell id="A92BPheFpYFU73hw37jA-18" style="edgeStyle=orthogonalEdgeStyle;rounded=0;orthogonalLoop=1;jettySize=auto;html=1;exitX=0;exitY=0.5;exitDx=0;exitDy=0;entryX=0.5;entryY=1;entryDx=0;entryDy=0;entryPerimeter=0;startArrow=none;startFill=0;endArrow=none;endFill=0;" edge="1" parent="1" source="A92BPheFpYFU73hw37jA-10" target="A92BPheFpYFU73hw37jA-14">
          <mxGeometry relative="1" as="geometry">
            <Array as="points">
              <mxPoint x="160" y="50"/>
              <mxPoint x="150" y="50"/>
            </Array>
          </mxGeometry>
        </mxCell>
        <mxCell id="A92BPheFpYFU73hw37jA-22" style="edgeStyle=orthogonalEdgeStyle;rounded=0;orthogonalLoop=1;jettySize=auto;html=1;exitX=1;exitY=0.5;exitDx=0;exitDy=0;startArrow=none;startFill=0;endArrow=none;endFill=0;" edge="1" parent="1" source="A92BPheFpYFU73hw37jA-10">
          <mxGeometry relative="1" as="geometry">
            <mxPoint x="160" y="330" as="targetPoint"/>
          </mxGeometry>
        </mxCell>
        <mxCell id="A92BPheFpYFU73hw37jA-10" value="" style="verticalLabelPosition=bottom;shadow=0;dashed=0;align=center;fillColor=#ffffff;html=1;verticalAlign=top;strokeWidth=1;shape=mxgraph.electrical.logic_gates.buffer2;negating=1;rotation=90;" vertex="1" parent="1">
          <mxGeometry x="150" y="60" width="20" height="20" as="geometry"/>
        </mxCell>
        <mxCell id="A92BPheFpYFU73hw37jA-21" style="edgeStyle=orthogonalEdgeStyle;rounded=0;orthogonalLoop=1;jettySize=auto;html=1;startArrow=none;startFill=0;endArrow=none;endFill=0;" edge="1" parent="1">
          <mxGeometry relative="1" as="geometry">
            <mxPoint x="130" y="300" as="targetPoint"/>
            <mxPoint x="150" y="50" as="sourcePoint"/>
          </mxGeometry>
        </mxCell>
        <mxCell id="A92BPheFpYFU73hw37jA-14" value="A" style="text;html=1;resizable=0;points=[];autosize=1;align=center;verticalAlign=top;spacingTop=-4;" vertex="1" parent="1">
          <mxGeometry x="140" y="20" width="20" height="20" as="geometry"/>
        </mxCell>
        <mxCell id="A92BPheFpYFU73hw37jA-48" style="edgeStyle=orthogonalEdgeStyle;rounded=0;orthogonalLoop=1;jettySize=auto;html=1;exitX=0;exitY=0.5;exitDx=0;exitDy=0;entryX=0.5;entryY=1;entryDx=0;entryDy=0;entryPerimeter=0;startArrow=none;startFill=0;endArrow=none;endFill=0;" edge="1" parent="1" source="A92BPheFpYFU73hw37jA-50" target="A92BPheFpYFU73hw37jA-52">
          <mxGeometry relative="1" as="geometry">
            <Array as="points">
              <mxPoint x="220" y="50"/>
              <mxPoint x="210" y="50"/>
            </Array>
          </mxGeometry>
        </mxCell>
        <mxCell id="A92BPheFpYFU73hw37jA-49" style="edgeStyle=orthogonalEdgeStyle;rounded=0;orthogonalLoop=1;jettySize=auto;html=1;exitX=1;exitY=0.5;exitDx=0;exitDy=0;startArrow=none;startFill=0;endArrow=none;endFill=0;" edge="1" parent="1" source="A92BPheFpYFU73hw37jA-50">
          <mxGeometry relative="1" as="geometry">
            <mxPoint x="220" y="330" as="targetPoint"/>
          </mxGeometry>
        </mxCell>
        <mxCell id="A92BPheFpYFU73hw37jA-50" value="" style="verticalLabelPosition=bottom;shadow=0;dashed=0;align=center;fillColor=#ffffff;html=1;verticalAlign=top;strokeWidth=1;shape=mxgraph.electrical.logic_gates.buffer2;negating=1;rotation=90;" vertex="1" parent="1">
          <mxGeometry x="210" y="60" width="20" height="20" as="geometry"/>
        </mxCell>
        <mxCell id="A92BPheFpYFU73hw37jA-51" style="edgeStyle=orthogonalEdgeStyle;rounded=0;orthogonalLoop=1;jettySize=auto;html=1;startArrow=none;startFill=0;endArrow=none;endFill=0;" edge="1" parent="1">
          <mxGeometry relative="1" as="geometry">
            <mxPoint x="190" y="330" as="targetPoint"/>
            <mxPoint x="210" y="50" as="sourcePoint"/>
          </mxGeometry>
        </mxCell>
        <mxCell id="A92BPheFpYFU73hw37jA-52" value="B" style="text;html=1;resizable=0;points=[];autosize=1;align=center;verticalAlign=top;spacingTop=-4;" vertex="1" parent="1">
          <mxGeometry x="200" y="20" width="20" height="20" as="geometry"/>
        </mxCell>
        <mxCell id="A92BPheFpYFU73hw37jA-53" style="edgeStyle=orthogonalEdgeStyle;rounded=0;orthogonalLoop=1;jettySize=auto;html=1;exitX=0;exitY=0.5;exitDx=0;exitDy=0;entryX=0.5;entryY=1;entryDx=0;entryDy=0;entryPerimeter=0;startArrow=none;startFill=0;endArrow=none;endFill=0;" edge="1" parent="1" source="A92BPheFpYFU73hw37jA-55" target="A92BPheFpYFU73hw37jA-57">
          <mxGeometry relative="1" as="geometry">
            <Array as="points">
              <mxPoint x="280" y="50"/>
              <mxPoint x="270" y="50"/>
            </Array>
          </mxGeometry>
        </mxCell>
        <mxCell id="A92BPheFpYFU73hw37jA-54" style="edgeStyle=orthogonalEdgeStyle;rounded=0;orthogonalLoop=1;jettySize=auto;html=1;exitX=1;exitY=0.5;exitDx=0;exitDy=0;startArrow=none;startFill=0;endArrow=none;endFill=0;" edge="1" parent="1" source="A92BPheFpYFU73hw37jA-55">
          <mxGeometry relative="1" as="geometry">
            <mxPoint x="280" y="330" as="targetPoint"/>
          </mxGeometry>
        </mxCell>
        <mxCell id="A92BPheFpYFU73hw37jA-55" value="" style="verticalLabelPosition=bottom;shadow=0;dashed=0;align=center;fillColor=#ffffff;html=1;verticalAlign=top;strokeWidth=1;shape=mxgraph.electrical.logic_gates.buffer2;negating=1;rotation=90;" vertex="1" parent="1">
          <mxGeometry x="270" y="60" width="20" height="20" as="geometry"/>
        </mxCell>
        <mxCell id="A92BPheFpYFU73hw37jA-56" style="edgeStyle=orthogonalEdgeStyle;rounded=0;orthogonalLoop=1;jettySize=auto;html=1;startArrow=none;startFill=0;endArrow=none;endFill=0;" edge="1" parent="1">
          <mxGeometry relative="1" as="geometry">
            <mxPoint x="250" y="330" as="targetPoint"/>
            <mxPoint x="270" y="50" as="sourcePoint"/>
          </mxGeometry>
        </mxCell>
        <mxCell id="A92BPheFpYFU73hw37jA-57" value="C" style="text;html=1;resizable=0;points=[];autosize=1;align=center;verticalAlign=top;spacingTop=-4;" vertex="1" parent="1">
          <mxGeometry x="260" y="20" width="20" height="20" as="geometry"/>
        </mxCell>
        <mxCell id="A92BPheFpYFU73hw37jA-67" style="edgeStyle=orthogonalEdgeStyle;rounded=0;orthogonalLoop=1;jettySize=auto;html=1;exitX=0;exitY=0.5;exitDx=0;exitDy=0;exitPerimeter=0;startArrow=none;startFill=0;endArrow=none;endFill=0;" edge="1" parent="1" source="A92BPheFpYFU73hw37jA-59">
          <mxGeometry relative="1" as="geometry">
            <mxPoint x="130" y="120" as="targetPoint"/>
          </mxGeometry>
        </mxCell>
        <mxCell id="A92BPheFpYFU73hw37jA-99" style="edgeStyle=orthogonalEdgeStyle;rounded=0;orthogonalLoop=1;jettySize=auto;html=1;exitX=1;exitY=0.5;exitDx=0;exitDy=0;exitPerimeter=0;startArrow=none;startFill=0;endArrow=none;endFill=0;" edge="1" parent="1" source="A92BPheFpYFU73hw37jA-59">
          <mxGeometry relative="1" as="geometry">
            <mxPoint x="400" y="120" as="targetPoint"/>
          </mxGeometry>
        </mxCell>
        <mxCell id="A92BPheFpYFU73hw37jA-59" value="" style="shape=or;whiteSpace=wrap;html=1;" vertex="1" parent="1">
          <mxGeometry x="300" y="110" width="20" height="20" as="geometry"/>
        </mxCell>
        <mxCell id="A92BPheFpYFU73hw37jA-68" style="edgeStyle=orthogonalEdgeStyle;rounded=0;orthogonalLoop=1;jettySize=auto;html=1;exitX=0;exitY=0.5;exitDx=0;exitDy=0;exitPerimeter=0;startArrow=none;startFill=0;endArrow=none;endFill=0;" edge="1" parent="1" source="A92BPheFpYFU73hw37jA-60">
          <mxGeometry relative="1" as="geometry">
            <mxPoint x="130" y="150" as="targetPoint"/>
          </mxGeometry>
        </mxCell>
        <mxCell id="A92BPheFpYFU73hw37jA-98" style="edgeStyle=orthogonalEdgeStyle;rounded=0;orthogonalLoop=1;jettySize=auto;html=1;exitX=1;exitY=0.5;exitDx=0;exitDy=0;exitPerimeter=0;startArrow=none;startFill=0;endArrow=none;endFill=0;" edge="1" parent="1" source="A92BPheFpYFU73hw37jA-60">
          <mxGeometry relative="1" as="geometry">
            <mxPoint x="400" y="150" as="targetPoint"/>
          </mxGeometry>
        </mxCell>
        <mxCell id="A92BPheFpYFU73hw37jA-60" value="" style="shape=or;whiteSpace=wrap;html=1;" vertex="1" parent="1">
          <mxGeometry x="300" y="140" width="20" height="20" as="geometry"/>
        </mxCell>
        <mxCell id="A92BPheFpYFU73hw37jA-69" style="edgeStyle=orthogonalEdgeStyle;rounded=0;orthogonalLoop=1;jettySize=auto;html=1;exitX=0;exitY=0.5;exitDx=0;exitDy=0;exitPerimeter=0;startArrow=none;startFill=0;endArrow=none;endFill=0;" edge="1" parent="1" source="A92BPheFpYFU73hw37jA-61">
          <mxGeometry relative="1" as="geometry">
            <mxPoint x="130" y="180" as="targetPoint"/>
          </mxGeometry>
        </mxCell>
        <mxCell id="A92BPheFpYFU73hw37jA-97" style="edgeStyle=orthogonalEdgeStyle;rounded=0;orthogonalLoop=1;jettySize=auto;html=1;exitX=1;exitY=0.5;exitDx=0;exitDy=0;exitPerimeter=0;startArrow=none;startFill=0;endArrow=none;endFill=0;" edge="1" parent="1" source="A92BPheFpYFU73hw37jA-61">
          <mxGeometry relative="1" as="geometry">
            <mxPoint x="400" y="180" as="targetPoint"/>
          </mxGeometry>
        </mxCell>
        <mxCell id="A92BPheFpYFU73hw37jA-61" value="" style="shape=or;whiteSpace=wrap;html=1;" vertex="1" parent="1">
          <mxGeometry x="300" y="170" width="20" height="20" as="geometry"/>
        </mxCell>
        <mxCell id="A92BPheFpYFU73hw37jA-70" style="edgeStyle=orthogonalEdgeStyle;rounded=0;orthogonalLoop=1;jettySize=auto;html=1;exitX=0;exitY=0.5;exitDx=0;exitDy=0;exitPerimeter=0;startArrow=none;startFill=0;endArrow=none;endFill=0;" edge="1" parent="1" source="A92BPheFpYFU73hw37jA-62">
          <mxGeometry relative="1" as="geometry">
            <mxPoint x="130" y="210" as="targetPoint"/>
          </mxGeometry>
        </mxCell>
        <mxCell id="A92BPheFpYFU73hw37jA-96" style="edgeStyle=orthogonalEdgeStyle;rounded=0;orthogonalLoop=1;jettySize=auto;html=1;exitX=1;exitY=0.5;exitDx=0;exitDy=0;exitPerimeter=0;startArrow=none;startFill=0;endArrow=none;endFill=0;" edge="1" parent="1" source="A92BPheFpYFU73hw37jA-62">
          <mxGeometry relative="1" as="geometry">
            <mxPoint x="400" y="210" as="targetPoint"/>
          </mxGeometry>
        </mxCell>
        <mxCell id="A92BPheFpYFU73hw37jA-62" value="" style="shape=or;whiteSpace=wrap;html=1;" vertex="1" parent="1">
          <mxGeometry x="300" y="200" width="20" height="20" as="geometry"/>
        </mxCell>
        <mxCell id="A92BPheFpYFU73hw37jA-72" style="edgeStyle=orthogonalEdgeStyle;rounded=0;orthogonalLoop=1;jettySize=auto;html=1;exitX=0;exitY=0.5;exitDx=0;exitDy=0;exitPerimeter=0;startArrow=none;startFill=0;endArrow=none;endFill=0;" edge="1" parent="1" source="A92BPheFpYFU73hw37jA-63">
          <mxGeometry relative="1" as="geometry">
            <mxPoint x="130" y="240" as="targetPoint"/>
          </mxGeometry>
        </mxCell>
        <mxCell id="A92BPheFpYFU73hw37jA-95" style="edgeStyle=orthogonalEdgeStyle;rounded=0;orthogonalLoop=1;jettySize=auto;html=1;exitX=1;exitY=0.5;exitDx=0;exitDy=0;exitPerimeter=0;startArrow=none;startFill=0;endArrow=none;endFill=0;" edge="1" parent="1" source="A92BPheFpYFU73hw37jA-63">
          <mxGeometry relative="1" as="geometry">
            <mxPoint x="400" y="240" as="targetPoint"/>
          </mxGeometry>
        </mxCell>
        <mxCell id="A92BPheFpYFU73hw37jA-63" value="" style="shape=or;whiteSpace=wrap;html=1;" vertex="1" parent="1">
          <mxGeometry x="300" y="230" width="20" height="20" as="geometry"/>
        </mxCell>
        <mxCell id="A92BPheFpYFU73hw37jA-73" style="edgeStyle=orthogonalEdgeStyle;rounded=0;orthogonalLoop=1;jettySize=auto;html=1;exitX=0;exitY=0.5;exitDx=0;exitDy=0;exitPerimeter=0;startArrow=none;startFill=0;endArrow=none;endFill=0;" edge="1" parent="1" source="A92BPheFpYFU73hw37jA-64">
          <mxGeometry relative="1" as="geometry">
            <mxPoint x="130" y="270" as="targetPoint"/>
          </mxGeometry>
        </mxCell>
        <mxCell id="A92BPheFpYFU73hw37jA-94" style="edgeStyle=orthogonalEdgeStyle;rounded=0;orthogonalLoop=1;jettySize=auto;html=1;exitX=1;exitY=0.5;exitDx=0;exitDy=0;exitPerimeter=0;startArrow=none;startFill=0;endArrow=none;endFill=0;" edge="1" parent="1" source="A92BPheFpYFU73hw37jA-64">
          <mxGeometry relative="1" as="geometry">
            <mxPoint x="400" y="270" as="targetPoint"/>
          </mxGeometry>
        </mxCell>
        <mxCell id="A92BPheFpYFU73hw37jA-64" value="" style="shape=or;whiteSpace=wrap;html=1;" vertex="1" parent="1">
          <mxGeometry x="300" y="260" width="20" height="20" as="geometry"/>
        </mxCell>
        <mxCell id="A92BPheFpYFU73hw37jA-74" style="edgeStyle=orthogonalEdgeStyle;rounded=0;orthogonalLoop=1;jettySize=auto;html=1;exitX=0;exitY=0.5;exitDx=0;exitDy=0;exitPerimeter=0;startArrow=none;startFill=0;endArrow=none;endFill=0;" edge="1" parent="1" source="A92BPheFpYFU73hw37jA-65">
          <mxGeometry relative="1" as="geometry">
            <mxPoint x="130" y="330" as="targetPoint"/>
          </mxGeometry>
        </mxCell>
        <mxCell id="A92BPheFpYFU73hw37jA-93" style="edgeStyle=orthogonalEdgeStyle;rounded=0;orthogonalLoop=1;jettySize=auto;html=1;exitX=1;exitY=0.5;exitDx=0;exitDy=0;exitPerimeter=0;startArrow=none;startFill=0;endArrow=none;endFill=0;" edge="1" parent="1" source="A92BPheFpYFU73hw37jA-65">
          <mxGeometry relative="1" as="geometry">
            <mxPoint x="400" y="300" as="targetPoint"/>
          </mxGeometry>
        </mxCell>
        <mxCell id="A92BPheFpYFU73hw37jA-65" value="" style="shape=or;whiteSpace=wrap;html=1;" vertex="1" parent="1">
          <mxGeometry x="300" y="290" width="20" height="20" as="geometry"/>
        </mxCell>
        <mxCell id="A92BPheFpYFU73hw37jA-92" style="edgeStyle=orthogonalEdgeStyle;rounded=0;orthogonalLoop=1;jettySize=auto;html=1;exitX=1;exitY=0.5;exitDx=0;exitDy=0;exitPerimeter=0;entryX=0.5;entryY=0.1;entryDx=0;entryDy=0;entryPerimeter=0;startArrow=none;startFill=0;endArrow=none;endFill=0;" edge="1" parent="1" source="A92BPheFpYFU73hw37jA-79" target="A92BPheFpYFU73hw37jA-87">
          <mxGeometry relative="1" as="geometry"/>
        </mxCell>
        <mxCell id="A92BPheFpYFU73hw37jA-103" style="edgeStyle=orthogonalEdgeStyle;rounded=0;orthogonalLoop=1;jettySize=auto;html=1;exitX=0.25;exitY=0.5;exitDx=0;exitDy=0;exitPerimeter=0;startArrow=none;startFill=0;endArrow=none;endFill=0;" edge="1" parent="1" source="A92BPheFpYFU73hw37jA-183">
          <mxGeometry relative="1" as="geometry">
            <mxPoint x="400" y="90" as="targetPoint"/>
            <Array as="points">
              <mxPoint x="400" y="270"/>
            </Array>
          </mxGeometry>
        </mxCell>
        <mxCell id="A92BPheFpYFU73hw37jA-79" value="" style="shape=xor;whiteSpace=wrap;html=1;rotation=90;" vertex="1" parent="1">
          <mxGeometry x="390" y="350" width="20" height="20" as="geometry"/>
        </mxCell>
        <mxCell id="A92BPheFpYFU73hw37jA-90" style="edgeStyle=orthogonalEdgeStyle;rounded=0;orthogonalLoop=1;jettySize=auto;html=1;exitX=1;exitY=0.5;exitDx=0;exitDy=0;exitPerimeter=0;entryX=0.5;entryY=0;entryDx=0;entryDy=0;entryPerimeter=0;startArrow=none;startFill=0;endArrow=none;endFill=0;" edge="1" parent="1" source="A92BPheFpYFU73hw37jA-80" target="A92BPheFpYFU73hw37jA-86">
          <mxGeometry relative="1" as="geometry"/>
        </mxCell>
        <mxCell id="A92BPheFpYFU73hw37jA-102" style="edgeStyle=orthogonalEdgeStyle;rounded=0;orthogonalLoop=1;jettySize=auto;html=1;exitX=0.5;exitY=0;exitDx=0;exitDy=0;startArrow=none;startFill=0;endArrow=none;endFill=0;" edge="1" parent="1" source="A92BPheFpYFU73hw37jA-173">
          <mxGeometry relative="1" as="geometry">
            <mxPoint x="370" y="90" as="targetPoint"/>
            <Array as="points">
              <mxPoint x="370" y="150"/>
              <mxPoint x="370" y="150"/>
            </Array>
          </mxGeometry>
        </mxCell>
        <mxCell id="A92BPheFpYFU73hw37jA-80" value="" style="shape=xor;whiteSpace=wrap;html=1;rotation=90;" vertex="1" parent="1">
          <mxGeometry x="360" y="350" width="20" height="20" as="geometry"/>
        </mxCell>
        <mxCell id="A92BPheFpYFU73hw37jA-83" value="O3" style="text;html=1;resizable=0;points=[];autosize=1;align=center;verticalAlign=top;spacingTop=-4;" vertex="1" parent="1">
          <mxGeometry x="325" y="380" width="30" height="20" as="geometry"/>
        </mxCell>
        <mxCell id="A92BPheFpYFU73hw37jA-86" value="O2" style="text;html=1;resizable=0;points=[];autosize=1;align=center;verticalAlign=top;spacingTop=-4;" vertex="1" parent="1">
          <mxGeometry x="355" y="380" width="30" height="20" as="geometry"/>
        </mxCell>
        <mxCell id="A92BPheFpYFU73hw37jA-87" value="O1" style="text;html=1;resizable=0;points=[];autosize=1;align=center;verticalAlign=top;spacingTop=-4;" vertex="1" parent="1">
          <mxGeometry x="385" y="380" width="30" height="20" as="geometry"/>
        </mxCell>
        <mxCell id="A92BPheFpYFU73hw37jA-165" style="edgeStyle=orthogonalEdgeStyle;rounded=0;orthogonalLoop=1;jettySize=auto;html=1;exitX=0;exitY=0.5;exitDx=0;exitDy=0;exitPerimeter=0;startArrow=none;startFill=0;endArrow=none;endFill=0;" edge="1" parent="1" source="A92BPheFpYFU73hw37jA-164">
          <mxGeometry relative="1" as="geometry">
            <mxPoint x="130" y="330" as="targetPoint"/>
          </mxGeometry>
        </mxCell>
        <mxCell id="A92BPheFpYFU73hw37jA-166" style="edgeStyle=orthogonalEdgeStyle;rounded=0;orthogonalLoop=1;jettySize=auto;html=1;exitX=1;exitY=0.5;exitDx=0;exitDy=0;exitPerimeter=0;startArrow=none;startFill=0;endArrow=none;endFill=0;" edge="1" parent="1" source="A92BPheFpYFU73hw37jA-164">
          <mxGeometry relative="1" as="geometry">
            <mxPoint x="400" y="330" as="targetPoint"/>
          </mxGeometry>
        </mxCell>
        <mxCell id="A92BPheFpYFU73hw37jA-164" value="" style="shape=or;whiteSpace=wrap;html=1;" vertex="1" parent="1">
          <mxGeometry x="300" y="320" width="20" height="20" as="geometry"/>
        </mxCell>
        <mxCell id="A92BPheFpYFU73hw37jA-104" value="" style="ellipse;whiteSpace=wrap;html=1;aspect=fixed;fillColor=#000000;" vertex="1" parent="1">
          <mxGeometry x="335" y="115" width="10" height="10" as="geometry"/>
        </mxCell>
        <mxCell id="A92BPheFpYFU73hw37jA-168" style="edgeStyle=orthogonalEdgeStyle;rounded=0;orthogonalLoop=1;jettySize=auto;html=1;exitX=0.25;exitY=0.5;exitDx=0;exitDy=0;exitPerimeter=0;startArrow=none;startFill=0;endArrow=none;endFill=0;" edge="1" parent="1" source="A92BPheFpYFU73hw37jA-171" target="A92BPheFpYFU73hw37jA-104">
          <mxGeometry relative="1" as="geometry">
            <mxPoint x="340" y="90" as="targetPoint"/>
            <mxPoint x="340" y="355" as="sourcePoint"/>
          </mxGeometry>
        </mxCell>
        <mxCell id="A92BPheFpYFU73hw37jA-169" value="" style="ellipse;whiteSpace=wrap;html=1;aspect=fixed;fillColor=#000000;" vertex="1" parent="1">
          <mxGeometry x="335" y="85" width="10" height="10" as="geometry"/>
        </mxCell>
        <mxCell id="A92BPheFpYFU73hw37jA-171" value="" style="ellipse;whiteSpace=wrap;html=1;aspect=fixed;fillColor=#000000;" vertex="1" parent="1">
          <mxGeometry x="335" y="145" width="10" height="10" as="geometry"/>
        </mxCell>
        <mxCell id="A92BPheFpYFU73hw37jA-172" style="edgeStyle=orthogonalEdgeStyle;rounded=0;orthogonalLoop=1;jettySize=auto;html=1;exitX=0.25;exitY=0.5;exitDx=0;exitDy=0;exitPerimeter=0;startArrow=none;startFill=0;endArrow=none;endFill=0;" edge="1" parent="1" source="A92BPheFpYFU73hw37jA-7" target="A92BPheFpYFU73hw37jA-171">
          <mxGeometry relative="1" as="geometry">
            <mxPoint x="340" y="125" as="targetPoint"/>
            <mxPoint x="340" y="355" as="sourcePoint"/>
          </mxGeometry>
        </mxCell>
        <mxCell id="A92BPheFpYFU73hw37jA-173" value="" style="ellipse;whiteSpace=wrap;html=1;aspect=fixed;fillColor=#000000;" vertex="1" parent="1">
          <mxGeometry x="365" y="175" width="10" height="10" as="geometry"/>
        </mxCell>
        <mxCell id="A92BPheFpYFU73hw37jA-178" style="edgeStyle=orthogonalEdgeStyle;rounded=0;orthogonalLoop=1;jettySize=auto;html=1;exitX=0.25;exitY=0.5;exitDx=0;exitDy=0;exitPerimeter=0;startArrow=none;startFill=0;endArrow=none;endFill=0;" edge="1" parent="1" source="A92BPheFpYFU73hw37jA-179" target="A92BPheFpYFU73hw37jA-173">
          <mxGeometry relative="1" as="geometry">
            <mxPoint x="370" y="90" as="targetPoint"/>
            <mxPoint x="370" y="355" as="sourcePoint"/>
            <Array as="points">
              <mxPoint x="370" y="200"/>
              <mxPoint x="370" y="200"/>
            </Array>
          </mxGeometry>
        </mxCell>
        <mxCell id="A92BPheFpYFU73hw37jA-179" value="" style="ellipse;whiteSpace=wrap;html=1;aspect=fixed;fillColor=#000000;" vertex="1" parent="1">
          <mxGeometry x="365" y="205" width="10" height="10" as="geometry"/>
        </mxCell>
        <mxCell id="A92BPheFpYFU73hw37jA-180" style="edgeStyle=orthogonalEdgeStyle;rounded=0;orthogonalLoop=1;jettySize=auto;html=1;exitX=0.25;exitY=0.5;exitDx=0;exitDy=0;exitPerimeter=0;startArrow=none;startFill=0;endArrow=none;endFill=0;" edge="1" parent="1" source="A92BPheFpYFU73hw37jA-181" target="A92BPheFpYFU73hw37jA-179">
          <mxGeometry relative="1" as="geometry">
            <mxPoint x="370" y="185" as="targetPoint"/>
            <mxPoint x="370" y="355" as="sourcePoint"/>
            <Array as="points">
              <mxPoint x="370" y="230"/>
              <mxPoint x="370" y="230"/>
            </Array>
          </mxGeometry>
        </mxCell>
        <mxCell id="A92BPheFpYFU73hw37jA-181" value="" style="ellipse;whiteSpace=wrap;html=1;aspect=fixed;fillColor=#000000;" vertex="1" parent="1">
          <mxGeometry x="365" y="235" width="10" height="10" as="geometry"/>
        </mxCell>
        <mxCell id="A92BPheFpYFU73hw37jA-182" style="edgeStyle=orthogonalEdgeStyle;rounded=0;orthogonalLoop=1;jettySize=auto;html=1;exitX=0.25;exitY=0.5;exitDx=0;exitDy=0;exitPerimeter=0;startArrow=none;startFill=0;endArrow=none;endFill=0;" edge="1" parent="1" source="A92BPheFpYFU73hw37jA-80" target="A92BPheFpYFU73hw37jA-181">
          <mxGeometry relative="1" as="geometry">
            <mxPoint x="370" y="215" as="targetPoint"/>
            <mxPoint x="370" y="355" as="sourcePoint"/>
          </mxGeometry>
        </mxCell>
        <mxCell id="A92BPheFpYFU73hw37jA-183" value="" style="ellipse;whiteSpace=wrap;html=1;aspect=fixed;fillColor=#000000;" vertex="1" parent="1">
          <mxGeometry x="395" y="265" width="10" height="10" as="geometry"/>
        </mxCell>
        <mxCell id="A92BPheFpYFU73hw37jA-184" style="edgeStyle=orthogonalEdgeStyle;rounded=0;orthogonalLoop=1;jettySize=auto;html=1;exitX=0.25;exitY=0.5;exitDx=0;exitDy=0;exitPerimeter=0;startArrow=none;startFill=0;endArrow=none;endFill=0;" edge="1" parent="1" source="A92BPheFpYFU73hw37jA-185" target="A92BPheFpYFU73hw37jA-183">
          <mxGeometry relative="1" as="geometry">
            <mxPoint x="400" y="90" as="targetPoint"/>
            <mxPoint x="400" y="355" as="sourcePoint"/>
            <Array as="points">
              <mxPoint x="400" y="280"/>
              <mxPoint x="400" y="280"/>
            </Array>
          </mxGeometry>
        </mxCell>
        <mxCell id="A92BPheFpYFU73hw37jA-185" value="" style="ellipse;whiteSpace=wrap;html=1;aspect=fixed;fillColor=#000000;" vertex="1" parent="1">
          <mxGeometry x="395" y="295" width="10" height="10" as="geometry"/>
        </mxCell>
        <mxCell id="A92BPheFpYFU73hw37jA-186" style="edgeStyle=orthogonalEdgeStyle;rounded=0;orthogonalLoop=1;jettySize=auto;html=1;exitX=0.25;exitY=0.5;exitDx=0;exitDy=0;exitPerimeter=0;startArrow=none;startFill=0;endArrow=none;endFill=0;" edge="1" parent="1" source="A92BPheFpYFU73hw37jA-191" target="A92BPheFpYFU73hw37jA-185">
          <mxGeometry relative="1" as="geometry">
            <mxPoint x="400" y="275" as="targetPoint"/>
            <mxPoint x="400" y="355" as="sourcePoint"/>
            <Array as="points">
              <mxPoint x="400" y="320"/>
              <mxPoint x="400" y="320"/>
            </Array>
          </mxGeometry>
        </mxCell>
        <mxCell id="A92BPheFpYFU73hw37jA-191" value="" style="ellipse;whiteSpace=wrap;html=1;aspect=fixed;fillColor=#000000;" vertex="1" parent="1">
          <mxGeometry x="395" y="325" width="10" height="10" as="geometry"/>
        </mxCell>
        <mxCell id="A92BPheFpYFU73hw37jA-192" style="edgeStyle=orthogonalEdgeStyle;rounded=0;orthogonalLoop=1;jettySize=auto;html=1;exitX=0.25;exitY=0.5;exitDx=0;exitDy=0;exitPerimeter=0;startArrow=none;startFill=0;endArrow=none;endFill=0;" edge="1" parent="1" source="A92BPheFpYFU73hw37jA-79" target="A92BPheFpYFU73hw37jA-191">
          <mxGeometry relative="1" as="geometry">
            <mxPoint x="400" y="305" as="targetPoint"/>
            <mxPoint x="400" y="355" as="sourcePoint"/>
          </mxGeometry>
        </mxCell>
      </root>
    </mxGraphModel>
  </diagram>
</mxfile>
